<svg version="1.1" id="Layer_1" xmlns="http://www.w3.org/2000/svg" xmlns:xlink="http://www.w3.org/1999/xlink" x="0px" y="0px"
	 width="100%" viewBox="0 0 491 508" enable-background="new 0 0 491 508" xml:space="preserve">
<path fill="#000000" opacity="1.000000" stroke="none" 
	d="
M328.000000,509.000000 
	C220.000031,509.000000 112.500031,508.979065 5.000180,509.095398 
	C1.576347,509.099091 0.903097,508.423889 0.905320,505.000031 
	C1.013555,338.333466 1.013536,171.666809 0.905361,5.000259 
	C0.903139,1.576998 1.575743,0.902946 4.999864,0.905259 
	C165.999756,1.014030 326.999725,1.014015 487.999634,0.905329 
	C491.422668,0.903018 492.096924,1.575416 492.094727,4.999744 
	C491.986450,171.666290 491.986450,338.332947 492.094574,504.999512 
	C492.096802,508.422272 491.426208,509.106354 488.000183,509.097382 
	C434.833740,508.958069 381.666809,509.000000 328.000000,509.000000 
z"/>
<path fill="#085B83" opacity="1.000000" stroke="none" 
	d="
M136.791458,193.260132 
	C139.047089,177.720825 145.859833,164.775192 155.941025,153.568024 
	C171.477249,136.296539 191.543594,127.962402 214.536285,125.063004 
	C215.662430,124.258865 216.673294,124.561172 218.090546,124.663399 
	C220.713211,125.147385 222.881210,124.991966 225.040421,124.992523 
	C266.804474,125.003159 308.568512,124.995277 350.332550,125.004532 
	C356.969421,125.006004 356.981171,125.029457 356.997284,131.634445 
	C357.086212,168.072479 356.832977,204.510910 357.240601,241.423126 
	C357.646912,248.007828 357.484955,254.120224 357.220917,260.660889 
	C358.393036,267.925751 355.618958,274.058319 353.295380,280.080902 
	C345.693970,299.783325 331.271423,313.438812 312.777649,322.607880 
	C301.912720,327.994629 290.227264,331.698242 277.427490,332.031342 
	C232.753952,331.919983 188.468735,332.041626 144.183578,331.998291 
	C137.018417,331.991302 137.006180,331.982971 137.002808,324.862640 
	C136.994461,307.215057 137.000397,289.567444 136.999771,271.463379 
	C136.994034,269.851868 137.012619,268.696411 136.885529,267.144775 
	C136.750763,266.493286 136.677490,266.239319 136.560364,265.595581 
	C136.521255,264.946167 136.526016,264.686584 136.624969,264.050964 
	C137.230728,261.867737 136.925247,260.091492 136.509125,257.915894 
	C136.498184,251.357437 136.500473,245.202225 136.502167,238.633728 
	C136.585480,236.611267 137.300507,235.032974 136.636780,232.999863 
	C136.470352,230.978943 136.511200,229.349915 136.506851,227.303864 
	C136.540894,226.606064 136.569595,226.325607 136.713409,225.633713 
	C137.176605,215.267258 136.981598,205.310379 136.853149,194.919907 
	C136.702621,194.201294 136.628769,193.916779 136.791458,193.260132 
z"/>
<path fill="#0D4E6F" opacity="1.000000" stroke="none" 
	d="
M137.505554,268.915710 
	C137.990662,287.491821 137.980606,305.977173 138.010101,324.462463 
	C138.020020,330.678223 138.304626,330.979614 144.506943,330.982574 
	C185.974060,331.002319 227.441177,330.986969 268.908295,331.010468 
	C271.384460,331.011871 273.916138,330.623901 276.675720,331.855835 
	C276.180603,333.281677 274.888519,332.889374 273.356720,332.911987 
	C271.224426,332.180054 269.375854,332.518463 267.566986,332.516571 
	C224.363159,332.471313 181.159286,332.547852 137.482239,332.332336 
	C136.089813,330.657837 136.523987,328.958862 136.521545,327.336853 
	C136.493027,308.445007 136.489761,289.553101 136.536804,270.173706 
	C136.719193,269.399139 136.872513,269.112030 137.505554,268.915710 
z"/>
<path fill="#7097A5" opacity="1.000000" stroke="none" 
	d="
M136.859467,331.617798 
	C180.067825,331.951935 222.999985,331.972290 265.932159,332.012238 
	C268.086975,332.014252 270.241669,332.186035 272.695587,332.575348 
	C227.456985,332.856079 181.919235,332.840210 136.247620,332.408447 
	C136.270294,331.764374 136.426788,331.536194 136.859467,331.617798 
z"/>
<path fill="#679AB4" opacity="1.000000" stroke="none" 
	d="
M220.923645,124.676582 
	C233.829895,124.129402 246.802032,124.002403 259.774078,124.013229 
	C292.383423,124.040459 324.992737,124.129944 357.729248,124.611183 
	C357.575134,125.192474 357.293884,125.357056 356.525269,125.561440 
	C311.656067,125.361969 267.273895,125.573692 222.404449,125.477386 
	C221.607803,125.359497 221.298645,125.259506 220.923645,124.676582 
z"/>
<path fill="#4D8098" opacity="1.000000" stroke="none" 
	d="
M356.699524,125.538078 
	C356.875275,125.074516 357.365845,125.046661 357.611145,125.037277 
	C357.900787,167.592072 357.948975,210.156235 357.980164,252.720413 
	C357.982117,255.370056 357.850586,258.019775 357.390839,260.879608 
	C356.971405,255.022354 356.942322,248.954971 356.904480,242.415604 
	C356.265686,240.687485 356.510437,239.335831 356.510529,238.024338 
	C356.513214,200.683441 356.468445,163.342529 356.699524,125.538078 
z"/>
<path fill="#64899C" opacity="1.000000" stroke="none" 
	d="
M137.083984,331.466309 
	C136.965256,331.937317 136.794846,331.947021 136.369110,331.974640 
	C136.081635,309.983093 136.049469,287.973663 136.092041,265.503540 
	C136.313553,264.803009 136.460312,264.563171 136.737640,264.724426 
	C136.920395,265.284271 136.972580,265.443085 137.108749,265.838165 
	C137.541992,266.788452 137.499069,267.550415 137.312256,268.659607 
	C137.116425,289.673706 137.074371,310.339355 137.083984,331.466309 
z"/>
<path fill="#4C6E7F" opacity="1.000000" stroke="none" 
	d="
M136.934570,264.828339 
	C136.868225,265.125458 136.518158,265.078461 136.342468,265.060669 
	C136.115967,252.666779 136.065155,240.290695 136.061310,227.446686 
	C136.246429,226.768936 136.384567,226.559128 136.736877,226.659332 
	C136.993423,228.710663 137.035782,230.451981 137.103485,232.627975 
	C137.690430,234.063309 137.459442,235.145050 137.288116,236.571320 
	C137.109390,244.000778 137.092728,251.063049 137.102051,258.597626 
	C137.765625,260.394287 137.428253,261.795258 137.288239,263.551727 
	C137.084564,264.134033 137.042725,264.332611 136.934570,264.828339 
z"/>
<path fill="#688C9C" opacity="1.000000" stroke="none" 
	d="
M137.013733,226.705597 
	C136.951065,226.969345 136.529907,226.998413 136.319092,226.988586 
	C136.080597,217.928986 136.052917,208.879196 136.121185,199.362885 
	C136.526657,198.915527 136.836197,198.934708 137.301376,199.392548 
	C137.531189,208.227203 137.522369,216.623199 137.324829,225.465240 
	C137.150848,226.088150 137.113617,226.264999 137.013733,226.705597 
z"/>
<path fill="#A8CFDB" opacity="1.000000" stroke="none" 
	d="
M220.453278,124.139786 
	C220.857803,124.193657 220.831650,124.488052 220.859543,124.633179 
	C220.389145,125.659744 219.546127,125.463829 218.383499,125.321938 
	C217.227066,125.160233 216.450974,125.134354 215.285004,125.111877 
	C216.231293,122.861130 218.344513,124.497284 220.453278,124.139786 
z"/>
<path fill="#A2C4D3" opacity="1.000000" stroke="none" 
	d="
M137.068024,198.553040 
	C136.735001,198.824890 136.465225,198.782593 136.341187,198.839462 
	C136.230896,196.992645 136.244675,195.088974 136.643219,193.036652 
	C137.059921,193.076874 137.091843,193.265717 137.181641,193.735962 
	C137.662476,195.424652 137.500824,196.854095 137.068024,198.553040 
z"/>
<path fill="#02CBFE" opacity="1.000000" stroke="none" 
	d="
M192.276276,148.140366 
	C194.242416,147.565460 195.892075,147.043945 197.801300,146.323151 
	C198.473434,145.443176 199.242157,145.514587 200.205017,145.228882 
	C201.566330,144.977417 202.584366,144.768173 203.947098,144.371902 
	C204.291794,144.184875 204.704041,144.393372 204.829193,144.199234 
	C206.725708,143.692276 208.497086,143.379456 210.632675,142.937042 
	C212.584717,141.625107 214.446762,142.138336 216.580841,141.940491 
	C232.218643,141.873245 247.475266,141.944122 262.727417,141.716446 
	C266.879395,141.654465 268.134888,143.085983 268.067474,147.166489 
	C267.850952,160.263489 267.981995,173.366241 267.966675,186.964233 
	C267.787201,187.486145 267.620056,187.510559 267.348175,187.765656 
	C252.460220,188.119064 237.677017,188.241776 222.456345,188.543091 
	C221.587479,188.838638 221.153610,188.945496 220.388580,189.108124 
	C217.777588,189.485199 215.908508,190.617569 214.025879,192.371582 
	C213.582275,193.524460 212.862167,194.032944 211.917480,194.715729 
	C209.507812,197.223450 208.625671,200.012833 209.011154,203.586533 
	C214.228668,206.003555 219.570557,204.961121 224.809235,204.785843 
	C237.236511,204.370087 249.653046,204.305817 262.541321,204.993927 
	C263.451965,205.143967 263.894501,205.179092 264.666412,205.158478 
	C265.857941,204.979385 266.653320,205.210678 267.702515,205.709183 
	C267.972534,220.426056 267.966583,234.993790 267.920166,250.064362 
	C267.879700,250.567200 267.428802,250.547424 267.333923,250.752167 
	C249.613403,250.951080 231.987137,251.023682 214.362671,250.878708 
	C210.446396,250.846497 208.713181,251.828171 208.760803,256.168182 
	C208.968811,275.121643 208.871185,294.078491 208.926682,313.498901 
	C208.842148,314.088135 208.715408,314.212585 208.624786,314.600952 
	C191.535995,314.983307 174.410721,315.068848 157.286453,315.247711 
	C153.811264,315.284027 153.721039,313.086639 153.721466,310.606262 
	C153.723770,297.298492 153.398972,283.982025 153.770721,270.684875 
	C154.421799,247.397110 153.317337,224.121918 153.616592,200.370712 
	C153.523361,199.494827 153.515030,199.088943 153.572937,198.381729 
	C153.744247,197.275467 153.867950,196.470123 153.982147,195.255981 
	C153.972641,194.847183 154.418091,194.682602 154.235886,194.530365 
	C154.972931,191.084167 155.892181,187.790207 156.890823,184.101700 
	C156.970215,183.707138 157.414276,183.650970 157.270264,183.479645 
	C157.361145,182.808487 157.596008,182.308655 157.910950,181.400726 
	C158.012817,180.405304 158.190491,179.875397 158.763275,179.209061 
	C160.622055,176.352493 162.287689,173.706711 164.078674,170.757111 
	C164.376038,169.581970 165.042801,169.053787 165.832550,168.244720 
	C167.675217,166.366165 169.281113,164.689545 171.051071,162.745850 
	C171.708618,160.806091 173.070694,160.068710 174.792389,159.234283 
	C177.597519,157.269882 180.122498,155.488098 182.871765,153.468445 
	C183.270798,152.803360 183.550064,152.461517 184.267853,152.147003 
	C186.566574,151.210922 188.531265,150.332855 190.750427,149.246155 
	C191.274246,148.700867 191.594803,148.422165 192.276276,148.140366 
z"/>
<path fill="#02CBFD" opacity="1.000000" stroke="none" 
	d="
M285.314941,150.112900 
	C285.359894,141.770935 285.359894,141.774048 293.187744,141.774811 
	C307.177307,141.776169 321.167908,141.866898 335.155731,141.710587 
	C338.942657,141.668274 340.491058,142.748978 340.460052,146.795395 
	C340.165466,185.257385 340.541748,223.733612 339.568390,262.176453 
	C339.222992,275.818878 331.093323,286.883148 320.970612,295.891327 
	C307.260193,308.092255 290.950958,314.360168 272.727661,315.043518 
	C258.756805,315.567383 244.751144,315.099854 230.764267,315.301666 
	C226.960388,315.356537 225.923843,313.913727 225.974625,310.322815 
	C226.141800,298.500641 226.186859,286.672028 225.967346,274.851654 
	C225.892639,270.829865 227.362320,269.717163 231.179977,269.772156 
	C243.001205,269.942413 254.827805,269.718170 266.650116,269.847229 
	C271.501678,269.900177 275.805573,268.335327 279.972961,266.224915 
	C284.537598,263.913300 285.985840,259.797668 285.821625,254.980453 
	C284.635651,220.189850 285.637177,185.389145 285.314941,150.112900 
z"/>
<path fill="#064E72" opacity="1.000000" stroke="none" 
	d="
M218.382050,125.346298 
	C218.722961,125.075844 219.442764,124.965576 220.525009,124.816803 
	C228.025528,124.848122 235.163589,124.973717 242.301712,124.978432 
	C280.187408,125.003441 318.073120,124.998116 356.417053,125.038910 
	C356.905975,163.722427 356.936646,202.370331 356.931519,241.480942 
	C355.595825,239.617920 356.008362,237.069046 356.006989,234.597809 
	C355.988007,201.120193 356.001160,167.642563 356.001831,134.164932 
	C356.002014,126.012810 355.994507,126.005486 347.620972,126.005074 
	C306.981445,126.003075 266.341949,126.013504 225.702438,125.984734 
	C223.388489,125.983093 221.074783,125.673012 218.382050,125.346298 
z"/>
<path fill="#036993" opacity="1.000000" stroke="none" 
	d="
M262.757385,204.812988 
	C245.557220,205.992386 228.098145,205.503983 210.641205,205.339676 
	C210.202988,205.335541 209.768677,204.916870 209.205582,204.339722 
	C224.695236,203.937027 240.280548,202.358398 255.911453,203.024979 
	C258.194702,203.122360 260.631195,202.591736 262.757385,204.812988 
z"/>
<path fill="#0D5376" opacity="1.000000" stroke="none" 
	d="
M136.819489,199.299500 
	C136.845566,197.486084 136.956131,196.147263 137.153091,194.412903 
	C138.664917,204.390762 138.159149,214.780792 137.347992,225.541687 
	C137.093384,217.198898 136.998672,208.486511 136.819489,199.299500 
z"/>
<path fill="#036993" opacity="1.000000" stroke="none" 
	d="
M216.656830,141.751938 
	C215.231827,142.235489 213.499924,142.556290 211.382477,142.842285 
	C212.374863,140.615784 214.314102,140.890274 216.656830,141.751938 
z"/>
<path fill="#036993" opacity="1.000000" stroke="none" 
	d="
M174.707611,159.079865 
	C173.983002,160.096252 172.893478,161.140839 171.509552,162.332108 
	C171.333389,160.497620 172.340439,159.341156 174.707611,159.079865 
z"/>
<path fill="#0D5376" opacity="1.000000" stroke="none" 
	d="
M137.278030,263.651733 
	C137.105560,262.582825 137.084747,261.230194 137.095978,259.473755 
	C137.957092,260.451508 138.122025,261.879669 137.278030,263.651733 
z"/>
<path fill="#036993" opacity="1.000000" stroke="none" 
	d="
M267.832092,205.642883 
	C267.174255,205.684494 266.369965,205.510666 265.280762,205.219788 
	C265.997772,204.338501 266.882874,204.542175 267.832092,205.642883 
z"/>
<path fill="#036993" opacity="1.000000" stroke="none" 
	d="
M220.229752,189.271759 
	C220.541336,188.994980 221.022400,188.814362 221.761169,188.677704 
	C221.629654,189.314697 221.118500,189.602097 220.229752,189.271759 
z"/>
<path fill="#036993" opacity="1.000000" stroke="none" 
	d="
M211.936310,194.735107 
	C212.159454,194.185898 212.707306,193.547913 213.543030,192.771118 
	C213.623627,193.549957 213.193207,194.293716 211.936310,194.735107 
z"/>
<path fill="#0D5376" opacity="1.000000" stroke="none" 
	d="
M137.270950,236.679993 
	C137.105453,235.904083 137.084854,234.869659 137.096527,233.448944 
	C137.811340,234.132095 138.014023,235.242554 137.270950,236.679993 
z"/>
<path fill="#036993" opacity="1.000000" stroke="none" 
	d="
M158.738556,179.075165 
	C158.766861,179.526398 158.577316,180.054520 158.189392,180.787628 
	C157.523346,180.193695 157.667526,179.570847 158.738556,179.075165 
z"/>
<path fill="#036993" opacity="1.000000" stroke="none" 
	d="
M165.774292,168.176025 
	C165.621552,168.730621 165.173767,169.418457 164.464996,170.279785 
	C164.327194,169.559052 164.653702,168.785751 165.774292,168.176025 
z"/>
<path fill="#0D5376" opacity="1.000000" stroke="none" 
	d="
M137.365173,269.007507 
	C137.141113,268.273834 137.123734,267.539581 137.149536,266.439880 
	C137.443329,266.846405 137.693924,267.618347 137.964905,268.698425 
	C137.985275,269.006500 137.571869,269.006927 137.365173,269.007507 
z"/>
<path fill="#036993" opacity="1.000000" stroke="none" 
	d="
M153.523132,198.248596 
	C153.655090,198.489120 153.689651,198.897446 153.638641,199.602982 
	C153.510635,199.405594 153.468185,198.910980 153.523132,198.248596 
z"/>
<path fill="#036993" opacity="1.000000" stroke="none" 
	d="
M200.207336,145.220337 
	C199.943939,145.483139 199.339584,145.779633 198.398071,146.100006 
	C198.662704,145.833923 199.264542,145.543961 200.207336,145.220337 
z"/>
<path fill="#036993" opacity="1.000000" stroke="none" 
	d="
M204.838104,144.015320 
	C204.868103,144.179993 204.727646,144.270401 204.412384,144.230591 
	C204.291794,144.184875 204.721878,144.025558 204.838104,144.015320 
z"/>
<path fill="#036993" opacity="1.000000" stroke="none" 
	d="
M154.023834,194.452744 
	C154.053680,194.378113 154.136108,194.733673 154.054382,194.790436 
	C153.972641,194.847183 153.993973,194.527374 154.023834,194.452744 
z"/>
<path fill="#036993" opacity="1.000000" stroke="none" 
	d="
M267.356384,250.905334 
	C267.327454,250.793213 267.457123,250.674774 267.753845,250.584412 
	C267.879700,250.567200 267.473785,250.853729 267.356384,250.905334 
z"/>
<path fill="#036993" opacity="1.000000" stroke="none" 
	d="
M267.375366,187.922913 
	C267.339935,187.805450 267.481812,187.658401 267.811707,187.508453 
	C267.820587,187.608536 267.671570,187.737778 267.375366,187.922913 
z"/>
<path fill="#036993" opacity="1.000000" stroke="none" 
	d="
M157.087311,183.368820 
	C157.126282,183.308334 157.150146,183.646393 157.060181,183.676758 
	C156.970215,183.707138 157.048340,183.429306 157.087311,183.368820 
z"/>
<path fill="#036993" opacity="1.000000" stroke="none" 
	d="
M184.326660,152.247711 
	C184.305405,152.399536 184.008911,152.710083 183.404236,153.125610 
	C183.414490,152.955872 183.732941,152.681152 184.326660,152.247711 
z"/>
<path fill="#036993" opacity="1.000000" stroke="none" 
	d="
M192.310135,148.215652 
	C192.272507,148.359451 191.952240,148.631927 191.318436,148.970947 
	C191.345764,148.806442 191.686630,148.575394 192.310135,148.215652 
z"/>
<path fill="#036993" opacity="1.000000" stroke="none" 
	d="
M208.731171,314.722961 
	C208.620911,314.639618 208.653091,314.425140 208.863159,314.092590 
	C208.943298,314.177734 208.887497,314.383514 208.731171,314.722961 
z"/>
</svg>